<?xml version="1.0" standalone="no"?>
<!DOCTYPE svg PUBLIC "-//W3C//DTD SVG 20010904//EN"
 "http://www.w3.org/TR/2001/REC-SVG-20010904/DTD/svg10.dtd">
<svg version="1.0" xmlns="http://www.w3.org/2000/svg"
 width="1000.000000pt" height="1000.000000pt" viewBox="0 0 1000.000000 1000.000000"
 preserveAspectRatio="xMidYMid meet">
<metadata>
Created by potrace 1.16, written by Peter Selinger 2001-2019
</metadata>
<g transform="translate(0.000000,1000.000000) scale(0.100000,-0.100000)"
fill="#000000" stroke="none">
<path d="M3498 7583 c-24 -6 -26 -104 -3 -127 8 -8 15 -22 15 -30 0 -9 5 -16
10 -16 6 0 10 -9 10 -20 0 -11 5 -20 10 -20 6 0 10 -9 10 -19 0 -11 5 -23 10
-26 6 -3 10 -15 10 -26 0 -11 5 -17 10 -14 6 4 10 -7 10 -24 0 -17 5 -31 10
-31 6 0 10 -11 10 -25 0 -14 5 -25 10 -25 6 0 10 -9 10 -20 0 -11 6 -23 14
-26 8 -3 12 -12 9 -20 -3 -7 2 -17 11 -20 9 -3 16 -15 16 -25 0 -10 5 -19 10
-19 6 0 10 -11 10 -25 0 -14 5 -25 10 -25 6 0 10 -13 10 -30 0 -16 5 -30 10
-30 6 0 10 -9 10 -20 0 -11 5 -20 10 -20 6 0 10 -9 10 -20 0 -11 5 -20 10 -20
6 0 10 -9 10 -19 0 -10 6 -21 14 -24 9 -4 12 -15 8 -33 -3 -19 -1 -25 7 -20 6
4 11 4 12 -1 3 -29 9 -48 18 -51 6 -2 11 -12 11 -23 0 -10 5 -19 10 -19 6 0
10 -11 10 -25 0 -14 5 -25 10 -25 6 0 10 -9 10 -21 0 -11 5 -17 10 -14 6 4 10
-7 10 -24 0 -17 5 -31 10 -31 6 0 10 -11 10 -25 0 -14 5 -25 10 -25 6 0 10
-11 10 -25 0 -14 5 -25 10 -25 6 0 10 -9 10 -20 0 -11 7 -20 16 -20 11 0 14
-6 9 -20 -5 -14 -2 -20 9 -20 10 0 16 -9 16 -25 0 -14 5 -25 10 -25 6 0 10
-13 10 -30 0 -16 5 -30 10 -30 6 0 10 -9 10 -20 0 -11 5 -20 10 -20 6 0 10 -9
10 -20 0 -11 5 -20 10 -20 6 0 10 -9 10 -20 0 -11 5 -20 10 -20 6 0 10 -11 10
-25 0 -14 5 -25 10 -25 6 0 10 -13 10 -30 0 -21 5 -30 16 -30 11 0 14 -6 9
-20 -5 -14 -2 -20 9 -20 10 0 16 -9 16 -25 0 -14 5 -25 10 -25 6 0 10 -9 10
-20 0 -11 5 -20 10 -20 6 0 10 -9 10 -20 0 -11 5 -20 10 -20 6 0 10 -13 10
-30 0 -16 5 -30 10 -30 6 0 10 -11 10 -25 0 -14 5 -25 10 -25 6 0 10 -9 10
-20 0 -11 5 -20 10 -20 6 0 10 -9 10 -20 0 -11 7 -20 16 -20 10 0 13 -6 9 -19
-3 -12 0 -21 10 -25 9 -3 15 -18 15 -36 0 -16 5 -30 10 -30 6 0 10 -9 10 -20
0 -11 5 -20 10 -20 6 0 10 -9 10 -20 0 -11 5 -20 10 -20 6 0 10 -11 10 -25 0
-14 5 -25 10 -25 6 0 10 -9 10 -20 0 -11 5 -20 10 -20 6 0 10 -11 10 -24 0
-14 5 -28 10 -31 6 -3 10 -14 10 -25 0 -10 7 -20 15 -24 8 -3 12 -12 9 -21 -4
-8 1 -17 10 -21 9 -3 16 -15 16 -25 0 -10 5 -19 10 -19 6 0 10 -9 10 -20 0
-11 5 -20 10 -20 6 0 10 -13 10 -29 0 -17 5 -33 10 -36 6 -3 10 -15 10 -26 0
-10 5 -19 10 -19 6 0 10 -9 10 -20 0 -11 5 -20 10 -20 6 0 10 -9 10 -20 0 -11
5 -20 10 -20 6 0 10 -11 10 -25 0 -14 5 -24 11 -23 6 2 12 -10 13 -26 1 -16 7
-31 14 -34 7 -2 12 -12 12 -23 0 -10 5 -19 10 -19 6 0 10 -9 10 -20 0 -11 5
-20 10 -20 6 0 10 -11 10 -25 0 -14 5 -25 10 -25 6 0 10 -9 10 -20 0 -11 5
-20 10 -20 6 0 10 -11 10 -25 0 -14 5 -25 10 -25 6 0 10 -11 10 -24 0 -14 5
-28 10 -31 6 -3 10 -15 10 -26 0 -10 6 -19 14 -19 9 0 12 -7 9 -20 -4 -14 0
-20 11 -20 9 0 16 -8 16 -20 0 -11 5 -20 10 -20 6 0 10 -7 10 -15 0 -24 24
-95 32 -95 5 0 8 -9 8 -20 0 -11 5 -20 10 -20 6 0 10 -9 10 -20 0 -11 5 -20
10 -20 6 0 10 -9 10 -19 0 -10 6 -21 14 -24 9 -4 12 -15 8 -33 -3 -17 -1 -25
6 -21 11 8 25 -20 16 -34 -3 -5 2 -12 10 -15 9 -3 16 -15 16 -25 0 -10 5 -19
10 -19 6 0 10 -11 10 -25 0 -14 5 -25 10 -25 6 0 10 -9 10 -20 0 -11 5 -20 10
-20 6 0 10 -11 10 -25 0 -14 5 -25 10 -25 6 0 10 -11 10 -24 0 -14 5 -28 10
-31 6 -3 10 -15 10 -26 0 -10 5 -19 10 -19 6 0 10 -9 10 -20 0 -11 7 -20 16
-20 11 0 14 -6 9 -20 -5 -14 -2 -20 9 -20 10 0 16 -9 16 -25 0 -14 4 -25 8
-25 4 0 9 -12 10 -27 1 -16 7 -29 12 -31 6 -2 10 -12 10 -23 0 -10 5 -19 10
-19 6 0 10 -9 10 -20 0 -11 5 -20 10 -20 6 0 10 -12 10 -26 0 -14 4 -23 10
-19 6 4 10 -5 10 -19 0 -14 5 -26 10 -26 6 0 10 -13 10 -30 0 -21 5 -30 16
-30 11 0 14 -6 9 -20 -4 -13 -1 -22 9 -26 9 -3 16 -15 16 -25 0 -10 5 -19 10
-19 6 0 10 -9 10 -20 0 -11 5 -20 10 -20 6 0 10 -9 10 -20 0 -11 5 -20 10 -20
6 0 10 -13 10 -29 0 -17 5 -33 10 -36 6 -3 10 -15 10 -26 0 -10 5 -19 10 -19
6 0 10 -9 10 -20 0 -11 5 -20 10 -20 6 0 10 -9 10 -19 0 -10 7 -21 15 -25 8
-3 12 -12 9 -21 -3 -8 0 -17 8 -20 7 -3 15 -18 16 -33 1 -15 7 -28 12 -30 6
-2 10 -12 10 -23 0 -10 5 -19 10 -19 6 0 10 -6 10 -13 0 -18 24 -67 33 -67 4
0 7 -11 7 -25 0 -14 5 -25 10 -25 6 0 10 -13 10 -30 0 -16 5 -30 10 -30 6 0
10 -9 10 -20 0 -11 6 -23 14 -26 8 -3 12 -12 9 -20 -3 -7 2 -17 11 -20 9 -3
16 -15 16 -25 0 -10 5 -19 10 -19 6 0 10 -9 10 -20 0 -11 5 -20 10 -20 6 0 10
-16 10 -35 0 -19 5 -35 10 -35 6 0 10 -9 10 -20 0 -11 5 -20 10 -20 6 0 10 -9
10 -20 0 -11 5 -20 10 -20 6 0 10 -9 10 -19 0 -10 7 -21 15 -25 9 -3 12 -12 8
-22 -3 -9 -1 -19 6 -23 6 -4 14 -18 16 -32 3 -13 9 -25 15 -27 5 -2 10 -12 10
-23 0 -10 5 -19 10 -19 6 0 10 -11 10 -25 0 -14 5 -25 10 -25 6 0 10 -9 10
-20 0 -11 5 -20 10 -20 6 0 10 -9 10 -20 0 -11 5 -20 10 -20 6 0 10 -13 10
-30 0 -16 5 -30 10 -30 6 0 10 -11 10 -25 0 -14 5 -25 10 -25 6 0 10 -8 10
-19 0 -27 27 -29 307 -30 200 0 245 2 257 14 8 8 19 15 25 15 18 0 13 57 -5
64 -10 4 -14 12 -10 22 3 8 -1 22 -9 30 -8 8 -12 21 -9 29 4 8 -1 18 -10 21
-9 3 -16 15 -16 25 0 10 -4 19 -10 19 -5 0 -10 11 -10 25 0 14 -4 25 -10 25
-5 0 -10 9 -10 20 0 11 -4 20 -10 20 -5 0 -10 9 -10 20 0 11 -4 20 -10 20 -5
0 -10 11 -10 25 0 14 -4 25 -10 25 -5 0 -10 14 -10 30 0 17 -4 30 -10 30 -5 0
-10 9 -10 20 0 11 -7 20 -16 20 -11 0 -14 6 -9 20 5 14 2 20 -9 20 -9 0 -16 8
-16 19 0 11 -4 23 -10 26 -5 3 -10 19 -10 36 0 16 -4 29 -10 29 -5 0 -10 9
-10 20 0 11 -4 20 -10 20 -5 0 -10 9 -10 20 0 11 -4 20 -10 20 -5 0 -10 11
-10 25 0 14 -4 25 -10 25 -5 0 -10 9 -10 20 0 11 -4 20 -10 20 -5 0 -10 14
-10 30 0 21 -5 30 -16 30 -11 0 -14 6 -9 20 5 14 2 20 -9 20 -10 0 -16 9 -16
25 0 14 -4 25 -10 25 -5 0 -10 9 -10 20 0 11 -4 20 -10 20 -5 0 -10 9 -10 20
0 11 -4 20 -10 20 -5 0 -10 13 -10 29 0 17 -4 33 -10 36 -5 3 -10 15 -10 26 0
10 -4 19 -10 19 -5 0 -10 9 -10 20 0 11 -4 20 -10 20 -5 0 -10 9 -10 20 0 11
-7 20 -16 20 -10 0 -13 6 -9 19 3 11 0 21 -8 24 -7 2 -19 28 -27 56 -7 28 -17
51 -22 51 -4 0 -8 9 -8 20 0 11 -4 20 -10 20 -5 0 -10 11 -10 25 0 14 -4 25
-10 25 -5 0 -10 9 -10 20 0 11 -4 20 -10 20 -5 0 -10 12 -10 26 0 14 -4 23
-10 19 -6 -4 -10 7 -10 25 0 17 -6 33 -14 36 -8 3 -12 12 -9 20 3 7 -2 17 -11
20 -9 3 -16 15 -16 25 0 10 -4 19 -10 19 -5 0 -10 9 -10 20 0 11 -4 20 -10 20
-5 0 -10 7 -10 15 0 24 -24 95 -32 95 -5 0 -8 9 -8 20 0 11 -4 20 -10 20 -5 0
-10 9 -10 20 0 11 -4 20 -10 20 -5 0 -10 9 -10 19 0 10 -7 22 -16 25 -10 4
-14 12 -10 22 3 8 -1 22 -9 30 -8 9 -15 24 -15 35 0 10 -4 19 -10 19 -5 0 -10
9 -10 20 0 11 -4 20 -10 20 -5 0 -10 11 -10 25 0 14 -4 25 -10 25 -5 0 -10 9
-10 20 0 11 -4 20 -10 20 -5 0 -10 9 -10 20 0 11 -4 20 -10 20 -5 0 -10 13
-10 29 0 17 -4 33 -10 36 -5 3 -10 15 -10 26 0 10 -6 19 -14 19 -9 0 -12 7 -9
20 4 14 0 20 -11 20 -9 0 -16 8 -16 20 0 11 -4 20 -10 20 -5 0 -10 11 -10 25
0 14 -4 25 -8 25 -4 0 -9 12 -10 28 -1 15 -7 29 -12 30 -6 2 -10 12 -10 23 0
10 -4 19 -10 19 -5 0 -10 9 -10 20 0 11 -4 20 -10 20 -5 0 -10 9 -10 19 0 10
-7 21 -15 25 -11 4 -14 13 -9 32 5 18 3 25 -3 21 -12 -8 -26 20 -17 34 3 5 -2
12 -10 15 -9 3 -16 17 -16 30 0 13 -4 24 -10 24 -5 0 -10 9 -10 20 0 11 -4 20
-10 20 -5 0 -10 9 -10 20 0 11 -4 20 -10 20 -5 0 -10 11 -10 25 0 14 -4 25
-10 25 -5 0 -10 11 -10 24 0 14 -4 28 -10 31 -5 3 -10 15 -10 26 0 10 -4 19
-10 19 -5 0 -10 9 -10 20 0 11 -7 20 -16 20 -11 0 -14 6 -9 20 5 14 2 20 -9
20 -10 0 -16 9 -16 25 0 14 -4 25 -8 25 -4 0 -9 12 -10 28 -1 15 -7 29 -12 30
-6 2 -10 12 -10 23 0 10 -4 19 -10 19 -5 0 -10 9 -10 20 0 11 -4 20 -10 20 -5
0 -10 11 -10 25 0 14 -4 25 -10 25 -5 0 -10 9 -10 20 0 11 -4 20 -10 20 -5 0
-10 13 -10 29 0 16 -6 31 -15 35 -8 3 -12 12 -9 21 4 8 -1 17 -10 21 -9 3 -16
15 -16 25 0 10 -4 19 -10 19 -5 0 -10 9 -10 20 0 11 -4 20 -10 20 -5 0 -10 9
-10 20 0 11 -4 20 -10 20 -5 0 -10 13 -10 29 0 17 -4 33 -10 36 -5 3 -10 15
-10 26 0 10 -4 19 -10 19 -5 0 -10 9 -10 20 0 11 -4 20 -10 20 -5 0 -10 9 -10
19 0 10 -7 21 -15 25 -8 3 -12 12 -9 19 3 8 -1 17 -8 20 -8 2 -20 28 -28 56
-7 28 -17 51 -22 51 -4 0 -8 11 -8 25 0 14 -4 25 -10 25 -5 0 -10 9 -10 20 0
11 -4 20 -10 20 -5 0 -10 9 -10 20 0 11 -4 20 -10 20 -5 0 -10 14 -10 30 0 17
-4 30 -10 30 -5 0 -10 9 -10 20 0 11 -6 23 -14 26 -8 3 -12 12 -9 20 3 7 -2
17 -11 20 -9 3 -16 15 -16 25 0 10 -4 19 -10 19 -5 0 -10 9 -10 20 0 11 -4 20
-10 20 -5 0 -10 7 -10 15 0 24 -24 95 -32 95 -5 0 -8 9 -8 20 0 11 -4 20 -10
20 -5 0 -10 9 -10 20 0 11 -6 23 -14 26 -8 3 -12 13 -9 25 4 12 0 19 -9 19
-11 0 -14 8 -10 26 3 19 1 25 -7 20 -7 -5 -13 4 -17 23 -4 17 -10 31 -15 31
-5 0 -9 11 -9 25 0 14 -4 25 -10 25 -5 0 -10 9 -10 20 0 11 -4 20 -10 20 -5 0
-10 9 -10 20 0 11 -4 20 -10 20 -5 0 -10 14 -10 30 0 17 -4 30 -10 30 -5 0
-10 9 -10 19 0 11 -4 23 -10 26 -5 3 -10 15 -10 26 0 11 -7 19 -16 19 -11 0
-14 6 -9 20 5 14 2 20 -9 20 -9 0 -16 8 -16 18 0 10 -5 23 -11 29 -14 14 2 32
39 48 36 16 1858 4 1874 -12 6 -7 28 -13 48 -13 20 0 45 -7 56 -15 10 -8 29
-15 42 -15 12 0 22 -4 22 -10 0 -5 16 -10 36 -10 21 0 33 -4 29 -10 -4 -6 5
-10 19 -10 14 0 26 -4 26 -10 0 -5 11 -10 25 -10 14 0 25 -4 25 -10 0 -5 9
-10 19 -10 11 0 21 -3 23 -7 3 -7 55 -37 115 -67 13 -6 23 -15 23 -19 0 -13
27 -37 42 -37 8 0 20 -9 28 -20 8 -11 18 -20 22 -20 9 0 98 -86 98 -95 0 -10
69 -75 79 -75 5 0 7 -9 4 -20 -3 -11 -1 -20 4 -20 18 0 63 -52 63 -71 0 -11 5
-19 10 -19 6 0 10 -8 10 -18 0 -10 9 -24 20 -32 11 -8 20 -22 20 -32 0 -10 5
-18 10 -18 6 0 10 -13 10 -29 0 -17 5 -33 10 -36 6 -3 10 -15 10 -26 0 -10 5
-19 10 -19 6 0 10 -13 10 -29 0 -16 6 -31 14 -34 9 -3 12 -15 9 -31 -4 -19 -1
-26 11 -26 13 0 16 -11 16 -50 0 -27 5 -50 10 -50 13 0 14 -432 1 -446 -6 -5
-11 -28 -12 -51 -2 -29 -7 -43 -17 -43 -11 0 -13 -8 -8 -35 6 -29 4 -35 -10
-35 -13 0 -15 -6 -10 -30 4 -22 2 -30 -9 -30 -8 0 -15 -9 -15 -20 0 -11 -4
-20 -10 -20 -5 0 -10 -11 -10 -25 0 -14 -4 -25 -10 -25 -5 0 -10 -9 -10 -20 0
-11 -4 -20 -10 -20 -5 0 -10 -9 -10 -20 0 -11 -4 -20 -10 -20 -5 0 -10 -7 -10
-16 0 -9 -12 -27 -26 -40 -14 -13 -22 -29 -19 -34 6 -10 -17 -40 -30 -40 -11
0 -35 -28 -35 -40 0 -7 -13 -25 -30 -40 -16 -15 -30 -31 -30 -34 0 -11 -89
-96 -100 -96 -5 0 -10 -4 -10 -10 0 -5 -9 -10 -21 -10 -11 0 -17 -4 -14 -10 3
-5 -1 -10 -9 -10 -9 0 -16 -4 -16 -10 0 -5 -7 -10 -15 -10 -8 0 -15 -7 -15
-15 0 -8 -7 -15 -15 -15 -8 0 -15 -4 -15 -8 0 -5 -16 -14 -35 -22 -19 -8 -35
-17 -35 -22 0 -4 -9 -8 -20 -8 -11 0 -20 -4 -20 -10 0 -5 -9 -10 -20 -10 -11
0 -20 -4 -20 -10 0 -5 -11 -10 -25 -10 -14 0 -25 -4 -25 -10 0 -5 -14 -10 -31
-10 -17 0 -28 -4 -24 -10 4 -6 -8 -10 -29 -10 -25 0 -36 -4 -36 -15 0 -11 -11
-15 -39 -15 -22 0 -43 -4 -46 -10 -3 -5 -28 -10 -56 -10 -27 0 -49 -4 -49 -10
0 -6 -28 -10 -65 -10 -63 0 -65 -1 -65 -25 0 -16 -6 -25 -15 -25 -8 0 -15 -5
-15 -10 0 -6 7 -13 15 -16 8 -4 15 -15 15 -25 0 -10 5 -19 10 -19 6 0 10 -11
10 -25 0 -14 4 -25 8 -25 4 0 9 -12 10 -27 1 -16 7 -29 12 -31 6 -2 10 -12 10
-23 0 -10 5 -19 10 -19 6 0 10 -11 10 -25 0 -14 5 -25 10 -25 6 0 10 -9 10
-20 0 -11 6 -19 13 -17 8 1 11 -8 9 -26 -2 -18 1 -26 7 -22 10 5 16 -15 12
-38 -1 -4 6 -10 14 -13 8 -4 15 -15 15 -26 0 -33 25 -48 79 -48 28 0 51 5 51
10 0 6 23 10 51 10 31 0 48 4 44 10 -4 6 12 10 39 10 32 0 45 4 43 13 -1 7 11
13 28 15 17 2 34 8 39 13 6 5 20 9 32 9 13 0 26 5 29 10 3 6 15 10 26 10 10 0
19 5 19 10 0 6 11 10 24 10 14 0 28 5 31 10 3 6 15 10 26 10 10 0 19 5 19 10
0 6 12 10 26 10 14 0 23 4 19 10 -3 6 3 10 14 10 12 0 21 5 21 10 0 6 10 10
22 10 12 0 18 3 15 7 -7 6 23 27 56 39 9 3 17 10 17 15 0 5 7 9 15 9 8 0 15 5
15 10 0 6 7 10 15 10 8 0 15 5 15 10 0 6 6 10 13 10 7 0 19 9 27 20 8 11 22
20 32 20 10 0 18 5 18 10 0 6 7 10 16 10 8 0 12 5 9 10 -3 6 1 10 9 10 9 0 16
5 16 10 0 11 85 100 95 100 8 0 75 68 75 76 0 3 17 21 37 40 20 19 34 37 30
40 -6 6 16 34 28 34 13 0 35 29 35 47 0 10 9 25 20 33 11 8 20 21 20 30 0 8
11 24 25 34 14 11 24 25 21 33 -3 7 1 13 10 13 12 0 15 6 11 21 -3 12 0 22 9
26 8 3 14 14 14 24 0 10 5 19 10 19 6 0 10 9 10 20 0 11 5 20 10 20 6 0 10 9
10 20 0 11 5 20 10 20 6 0 10 14 10 30 0 17 5 30 10 30 6 0 10 11 10 25 0 14
5 25 10 25 6 0 10 13 10 29 0 16 6 31 15 35 9 3 15 19 15 41 0 19 5 35 10 35
6 0 10 20 10 45 0 25 5 45 10 45 6 0 10 27 10 61 0 33 4 58 9 55 5 -3 10 57
13 133 6 181 -2 432 -13 425 -5 -3 -9 19 -9 49 0 38 -4 57 -14 60 -10 4 -13
17 -9 46 5 33 3 41 -10 41 -13 0 -15 7 -11 29 4 20 2 30 -10 34 -10 4 -16 18
-16 37 0 16 -4 30 -10 30 -5 0 -10 14 -10 30 0 17 -4 30 -10 30 -5 0 -10 11
-10 25 0 14 -4 25 -10 25 -5 0 -10 14 -10 30 0 17 -4 30 -10 30 -5 0 -10 9
-10 20 0 11 -4 20 -10 20 -5 0 -10 9 -10 19 0 10 -7 22 -16 25 -9 4 -14 9 -11
12 5 6 0 15 -30 49 -7 7 -13 20 -13 27 0 8 -9 20 -20 28 -11 8 -20 22 -20 32
0 10 -4 18 -10 18 -5 0 -10 7 -10 15 0 8 -3 15 -8 15 -4 0 -13 14 -20 30 -8
17 -18 30 -23 30 -15 0 -52 41 -69 75 -15 29 -54 75 -64 75 -3 0 -29 23 -57
50 -28 28 -57 50 -65 50 -8 0 -14 5 -14 11 0 14 -25 39 -39 39 -6 0 -11 5 -11
10 0 6 -7 10 -15 10 -8 0 -15 5 -15 10 0 6 -6 10 -13 10 -7 0 -19 9 -27 20 -8
11 -22 20 -32 20 -10 0 -18 4 -18 9 0 5 -16 16 -35 25 -19 9 -35 21 -35 26 0
6 -7 10 -15 10 -8 0 -15 5 -15 10 0 6 -9 10 -20 10 -11 0 -20 5 -20 10 0 6 -9
10 -20 10 -11 0 -20 5 -20 10 0 6 -9 10 -20 10 -11 0 -20 5 -20 10 0 6 -11 10
-25 10 -14 0 -25 5 -25 10 0 6 -11 10 -25 10 -14 0 -25 5 -25 10 0 6 -11 10
-24 10 -14 0 -28 5 -31 10 -3 6 -17 10 -31 10 -14 0 -27 7 -30 15 -4 10 -20
15 -45 15 -21 0 -39 5 -39 10 0 6 -18 10 -40 10 -22 0 -40 5 -40 10 0 6 -24
10 -54 10 -35 0 -56 5 -58 13 -4 9 -293 12 -1394 14 -764 1 -1397 -1 -1406 -4z"/>
<path d="M3181 6703 c-1 -7 -5 -13 -11 -13 -19 0 -50 -35 -50 -57 0 -13 -4
-23 -10 -23 -5 0 -10 -11 -10 -25 0 -14 -4 -25 -10 -25 -5 0 -10 -9 -10 -20 0
-11 -4 -20 -10 -20 -5 0 -10 -9 -10 -19 0 -11 -4 -23 -10 -26 -5 -3 -10 -15
-10 -25 0 -10 -4 -20 -10 -22 -5 -1 -11 -15 -12 -30 -1 -16 -6 -28 -10 -28 -4
0 -8 -11 -8 -25 0 -16 -6 -25 -16 -25 -10 0 -14 -5 -10 -15 3 -9 -1 -18 -9
-21 -8 -4 -15 -15 -15 -25 0 -10 -4 -19 -10 -19 -5 0 -10 -9 -10 -19 0 -11 -5
-21 -11 -23 -16 -5 -18 -140 -1 -145 6 -3 12 -13 12 -24 0 -10 5 -19 10 -19 6
0 10 -11 10 -25 0 -14 5 -24 12 -23 6 2 12 -10 13 -27 1 -16 7 -31 14 -33 6
-2 11 -12 11 -23 0 -10 5 -19 10 -19 6 0 10 -9 10 -20 0 -11 5 -20 10 -20 6 0
10 -9 10 -19 0 -11 5 -23 10 -26 6 -3 10 -15 10 -26 0 -11 5 -17 10 -14 6 4
10 -8 10 -29 0 -20 5 -36 10 -36 6 0 10 -9 10 -20 0 -11 5 -20 10 -20 6 0 10
-9 10 -20 0 -11 6 -23 14 -26 8 -3 12 -12 9 -20 -3 -7 2 -17 11 -20 9 -3 16
-15 16 -25 0 -10 5 -19 10 -19 6 0 10 -11 10 -24 0 -14 5 -28 10 -31 6 -3 10
-17 10 -31 0 -13 5 -24 10 -24 6 0 10 -9 10 -20 0 -11 5 -20 10 -20 6 0 10 -9
10 -20 0 -11 5 -20 10 -20 6 0 10 -9 10 -19 0 -10 7 -21 15 -25 8 -3 12 -12 9
-20 -3 -9 1 -22 10 -31 8 -9 13 -22 10 -30 -4 -8 1 -18 10 -21 9 -3 16 -15 16
-25 0 -10 5 -19 10 -19 6 0 10 -11 10 -25 0 -14 5 -25 10 -25 6 0 10 -9 10
-20 0 -11 5 -20 10 -20 6 0 10 -11 10 -25 0 -14 5 -25 10 -25 6 0 10 -11 10
-25 0 -14 5 -25 10 -25 6 0 10 -11 10 -25 0 -14 5 -25 10 -25 6 0 10 -9 10
-20 0 -11 7 -20 16 -20 11 0 14 -6 9 -20 -5 -14 -2 -20 9 -20 9 0 16 -7 16
-15 0 -24 24 -95 32 -95 5 0 8 -9 8 -20 0 -11 5 -20 10 -20 6 0 10 -9 10 -20
0 -11 5 -20 10 -20 6 0 10 -9 10 -20 0 -11 5 -20 10 -20 6 0 10 -11 10 -25 0
-14 5 -25 10 -25 6 0 10 -13 10 -30 0 -21 5 -30 16 -30 11 0 14 -6 9 -20 -5
-14 -2 -20 9 -20 10 0 16 -9 16 -25 0 -14 5 -25 10 -25 6 0 10 -9 10 -21 0
-11 5 -17 10 -14 6 4 10 -5 10 -19 0 -14 5 -26 10 -26 6 0 10 -13 10 -30 0
-16 5 -30 10 -30 6 0 10 -11 10 -25 0 -14 5 -25 10 -25 6 0 10 -9 10 -20 0
-11 5 -20 10 -20 6 0 10 -9 10 -20 0 -12 7 -20 16 -20 12 0 15 -6 11 -21 -3
-12 0 -28 9 -36 8 -8 14 -23 14 -34 0 -10 5 -19 10 -19 6 0 10 -9 10 -20 0
-11 5 -20 10 -20 6 0 10 -9 10 -20 0 -11 5 -20 10 -20 6 0 10 -9 10 -20 0 -11
5 -20 10 -20 6 0 10 -11 10 -25 0 -14 5 -25 10 -25 6 0 10 -13 10 -30 0 -16 5
-30 10 -30 6 0 10 -9 10 -19 0 -10 7 -22 16 -25 8 -3 12 -11 8 -17 -4 -7 -1
-17 7 -23 19 -15 39 -52 39 -71 0 -8 5 -15 10 -15 6 0 10 -13 10 -29 0 -17 5
-33 10 -36 6 -3 10 -15 10 -26 0 -10 5 -19 10 -19 6 0 10 -9 10 -20 0 -11 5
-20 10 -20 6 0 10 -9 10 -20 0 -11 5 -20 10 -20 6 0 10 -11 10 -25 0 -14 5
-24 12 -22 6 1 12 -11 13 -28 1 -16 7 -31 14 -33 6 -2 11 -12 11 -23 0 -10 5
-19 10 -19 6 0 10 -9 10 -20 0 -11 5 -20 10 -20 6 0 10 -11 10 -25 0 -14 5
-25 10 -25 6 0 10 -9 10 -20 0 -11 5 -20 10 -20 6 0 10 -13 10 -30 0 -16 5
-30 10 -30 6 0 10 -9 10 -20 0 -11 5 -20 10 -20 6 0 10 -11 10 -25 0 -15 6
-25 14 -25 9 0 12 -7 9 -20 -4 -14 0 -20 11 -20 9 0 16 -8 16 -20 0 -11 5 -20
10 -20 6 0 10 -13 10 -29 0 -17 5 -33 10 -36 6 -3 10 -15 10 -26 0 -10 5 -19
10 -19 6 0 10 -9 10 -20 0 -11 5 -20 10 -20 6 0 10 -9 10 -20 0 -11 5 -20 10
-20 6 0 10 -12 10 -26 0 -14 4 -23 10 -19 6 4 10 -7 10 -25 0 -17 6 -33 14
-36 8 -3 12 -13 9 -25 -4 -13 0 -19 11 -19 9 0 16 -8 16 -20 0 -11 5 -20 10
-20 6 0 10 -11 10 -25 0 -14 5 -25 10 -25 6 0 10 -9 10 -20 0 -11 5 -20 10
-20 6 0 10 -13 10 -30 0 -16 5 -30 10 -30 6 0 10 -9 10 -19 0 -11 5 -23 10
-26 6 -3 10 -15 10 -26 0 -10 5 -19 10 -19 6 0 10 -9 10 -20 0 -11 7 -20 16
-20 11 0 14 -6 9 -20 -5 -14 -2 -20 9 -20 9 0 16 -7 16 -15 0 -24 24 -95 32
-95 5 0 8 -9 8 -20 0 -11 5 -20 10 -20 6 0 10 -9 10 -20 0 -11 5 -20 10 -20 6
0 10 -12 10 -26 0 -14 4 -23 10 -19 6 3 10 -4 10 -18 0 -35 20 -37 307 -34
231 2 250 3 271 22 12 11 22 29 22 40 0 16 -2 17 -10 5 -7 -11 -10 -5 -10 23
0 24 -5 40 -15 43 -8 4 -15 15 -15 25 0 10 -4 19 -10 19 -5 0 -10 9 -10 20 0
11 -4 20 -10 20 -5 0 -10 11 -10 25 0 14 -4 25 -8 25 -4 0 -9 12 -10 28 -1 15
-7 29 -12 30 -6 2 -10 12 -10 23 0 10 -4 19 -10 19 -5 0 -10 9 -10 20 0 11 -4
20 -10 20 -5 0 -10 9 -10 20 0 12 -7 20 -16 20 -12 0 -15 7 -12 25 3 15 1 25
-6 25 -6 0 -13 12 -14 28 -1 15 -7 29 -12 30 -6 2 -10 12 -10 23 0 10 -4 19
-10 19 -5 0 -10 11 -10 25 0 14 -4 25 -10 25 -5 0 -10 9 -10 21 0 11 -4 17
-10 14 -6 -4 -10 5 -10 19 0 14 -4 26 -10 26 -5 0 -10 13 -10 29 0 17 -4 33
-10 36 -5 3 -10 15 -10 26 0 11 -7 19 -16 19 -10 0 -14 5 -10 15 3 9 -1 18 -9
21 -8 4 -15 15 -15 25 0 10 -4 19 -10 19 -5 0 -10 11 -10 25 0 14 -4 25 -10
25 -5 0 -10 14 -10 30 0 17 -4 30 -10 30 -5 0 -10 9 -10 20 0 11 -4 20 -10 20
-5 0 -10 9 -10 20 0 11 -4 20 -10 20 -5 0 -10 11 -10 25 0 15 -6 25 -15 25 -9
0 -12 6 -8 16 3 9 1 19 -5 23 -6 4 -13 18 -15 31 -2 13 -9 26 -15 28 -7 2 -12
15 -12 28 0 13 -4 24 -10 24 -5 0 -10 9 -10 20 0 11 -4 20 -10 20 -5 0 -10 9
-10 20 0 11 -4 20 -10 20 -5 0 -10 9 -10 20 0 11 -4 20 -10 20 -5 0 -10 13
-10 29 0 17 -4 33 -10 36 -5 3 -10 15 -10 26 0 10 -4 19 -10 19 -5 0 -10 9
-10 20 0 11 -7 20 -16 20 -11 0 -14 6 -9 20 5 14 2 20 -9 20 -10 0 -16 9 -16
25 0 14 -4 25 -10 25 -5 0 -10 11 -10 24 0 14 -4 28 -10 31 -5 3 -10 15 -10
26 0 10 -4 19 -10 19 -5 0 -10 9 -10 19 0 11 -4 23 -10 26 -5 3 -10 15 -10 26
0 10 -4 19 -10 19 -5 0 -10 9 -10 20 0 11 -7 20 -15 20 -11 0 -13 7 -9 29 4
20 1 30 -10 34 -9 4 -13 13 -10 22 4 8 -1 17 -10 21 -9 3 -16 15 -16 25 0 10
-4 19 -10 19 -5 0 -10 9 -10 20 0 11 -4 20 -10 20 -5 0 -10 9 -10 20 0 11 -4
20 -10 20 -5 0 -10 7 -10 15 0 24 -24 95 -32 95 -5 0 -8 9 -8 20 0 11 -4 20
-10 20 -5 0 -10 9 -10 19 0 10 -7 21 -15 25 -8 3 -12 12 -9 19 3 8 -2 17 -10
20 -10 4 -16 18 -16 37 0 16 -4 30 -10 30 -5 0 -10 9 -10 20 0 11 -4 20 -10
20 -5 0 -10 11 -10 25 0 14 -4 25 -10 25 -5 0 -10 9 -10 20 0 11 -4 20 -10 20
-5 0 -10 9 -10 20 0 11 -4 20 -10 20 -5 0 -10 14 -10 31 0 17 -4 28 -10 24 -6
-4 -10 5 -10 20 0 14 -6 28 -14 31 -8 3 -12 12 -9 20 3 7 -2 17 -11 20 -9 3
-16 15 -16 25 0 10 -4 19 -10 19 -5 0 -10 9 -10 20 0 11 -4 20 -10 20 -5 0
-10 13 -10 29 0 17 -4 33 -10 36 -5 3 -10 15 -10 26 0 10 -4 19 -10 19 -5 0
-10 9 -10 20 0 11 -4 20 -10 20 -5 0 -10 9 -10 19 0 11 -4 23 -10 26 -5 3 -10
15 -10 26 0 10 -6 19 -14 19 -9 0 -12 8 -8 26 3 19 1 25 -7 20 -7 -5 -13 4
-17 23 -4 17 -10 31 -15 31 -5 0 -9 11 -9 25 0 14 -4 25 -10 25 -5 0 -10 9
-10 20 0 11 -4 20 -10 20 -5 0 -10 9 -10 20 0 11 -4 20 -10 20 -5 0 -10 12
-10 26 0 14 -4 23 -10 19 -6 -4 -10 6 -10 24 0 16 -4 33 -10 36 -5 3 -10 15
-10 26 0 11 -7 19 -16 19 -11 0 -14 6 -9 20 5 14 2 20 -9 20 -9 0 -16 9 -16
20 0 11 -4 20 -10 20 -5 0 -10 11 -10 25 0 14 -4 25 -10 25 -5 0 -10 14 -10
30 0 17 -4 30 -10 30 -5 0 -10 9 -10 20 0 11 -4 20 -10 20 -5 0 -10 11 -10 25
0 14 -4 25 -10 25 -5 0 -10 9 -10 20 0 11 -6 19 -12 17 -9 -1 -12 8 -10 27 3
18 0 26 -7 22 -10 -6 -16 13 -12 37 1 4 -6 10 -14 13 -8 4 -15 17 -15 30 0 13
-4 24 -10 24 -5 0 -10 9 -10 20 0 11 -4 20 -10 20 -5 0 -10 9 -10 20 0 11 -4
20 -10 20 -5 0 -10 12 -10 26 0 14 -4 23 -10 19 -6 -4 -10 8 -10 29 0 20 -4
36 -10 36 -5 0 -10 9 -10 20 0 11 -4 20 -10 20 -5 0 -10 9 -10 20 0 11 -7 20
-16 20 -11 0 -14 6 -9 20 5 14 2 20 -9 20 -10 0 -16 9 -16 25 0 14 -5 25 -11
25 -5 0 -8 4 -5 8 3 5 -2 21 -10 36 -7 16 -14 35 -14 42 0 8 -4 14 -10 14 -5
0 -10 11 -10 25 0 14 -4 25 -10 25 -5 0 -10 9 -10 20 0 11 -4 20 -10 20 -5 0
-10 9 -10 20 0 11 -4 20 -10 20 -5 0 -10 13 -10 29 0 16 -6 31 -15 35 -8 3
-12 12 -9 21 4 8 -1 17 -10 21 -9 3 -16 15 -16 25 0 10 -4 19 -10 19 -5 0 -10
9 -10 20 0 11 -4 20 -10 20 -5 0 -10 9 -10 20 0 11 -4 20 -10 20 -5 0 -10 11
-10 25 0 21 -5 25 -29 25 -16 0 -32 6 -34 13 -4 10 -6 10 -6 0z"/>
</g>
</svg>
